
    <svg xmlns="http://www.w3.org/2000/svg" xml:space="preserve" width="1600" height="1227">
      <g data-padding="20">
          <g transform="translate(455.301 423.345)scale(1.3)">
              <linearGradient id="a" x1="0" x2="1" y1="0" y2="0" gradientUnits="objectBoundingBox">
                  <stop offset="0%" stop-color="var(--main-color)"/>
                  <stop offset="49.8%" stop-color="var(--main-color)"/>
                  <stop offset="100%" stop-color="var(--main-color)"/>
              </linearGradient>
              <path fill="url(#a)" d="M782.039 950.92v-10.86h5.43q7.6 0 14.12-6.52 6.51-6.51 11.4-15.2t7.06-19.01q2.17-10.31 2.17-19V302.58q0-7.6-2.17-17.38-2.17-9.77-7.06-19t-11.94-15.21q-7.06-5.97-15.75-5.97h-5.43v-10.86h178.1q101 0 158.02 44.53 57.01 44.52 57.01 118.37 0 31.49-10.86 56.47t-27.69 44.53q-16.84 19.55-36.38 33.12-19.55 13.58-36.93 22.26 45.61 8.69 76.02 29.33 30.41 20.63 49.42 47.24 19 26.6 26.6 57.01t7.6 59.73q0 56.47-20.63 95.03-20.63 38.55-54.84 62.98-34.21 24.44-78.19 35.3-43.99 10.86-90.69 10.86Zm364.9-185.71v-11.94q-8.69-83.62-56.48-129.24-47.78-45.61-134.66-45.61h-60.82v336.66h62.99q87.97 0 138.47-39.64t50.5-110.23m-44.53-350.77v-7.61q-3.26-62.98-43.98-99.91-40.73-36.92-109.15-36.92h-54.3v273.67h56.48q45.61 0 74.39-11.95 28.78-11.94 46.15-30.95 17.38-19 23.89-41.81 6.52-22.8 6.52-44.52" transform="translate(-461.11 -416.59)"/>
              <rect width="583" height="1227.18" x="272.549" y="-416.68" fill="none" rx="0" ry="0"/>
          </g>
      </g>
  </svg>